<svg xmlns="http://www.w3.org/2000/svg" width="206" height="224" fill="none"><g clip-path="url(#a)"><path fill="#252525" d="M.01 0c.754.46 1.573.792 2.372 1.159 9.115 4.205 18.25 8.368 27.365 12.576 11.987 5.547 23.224 12.961 32.38 22.536 5.44 5.474 10.156 11.628 14.381 18.076 2.86 4.37 5.431 8.915 8.101 13.398 2.917 4.93 5.824 9.864 8.743 14.792 3.214-4.915 6.445-9.82 9.669-14.73 3.212 4.91 6.466 9.79 9.647 14.72 2.914-4.798 5.714-9.663 8.588-14.482 2.437-4.059 4.74-8.197 7.31-12.175 2.404-3.85 5.059-7.544 7.856-11.118 1.543-2.095 3.376-3.948 5.042-5.939 3.516-3.72 7.142-7.36 11.167-10.533 1.991-1.721 4.186-3.172 6.311-4.713 3.993-2.652 8.056-5.212 12.339-7.377 5.631-2.864 11.435-5.37 17.161-8.039 5.831-2.684 11.677-5.342 17.498-8.049-24.63 37.283-49.193 74.61-73.821 111.898a162318.39 162318.39 0 0 0 69.511 105.395c1.461 2.177 2.862 4.397 4.36 6.55-9.37-4.333-18.767-8.613-28.141-12.936-5.155-2.363-10.212-4.947-15.009-7.979-3.603-2.35-7.189-4.75-10.488-7.517-3.679-2.947-7.035-6.273-10.299-9.67-6.817-7.294-12.469-15.598-17.458-24.226-3.981-6.708-7.901-13.451-11.927-20.131-3.181 4.932-6.438 9.817-9.647 14.732-3.219-4.92-6.465-9.822-9.67-14.75-4.312 7.29-8.617 14.582-12.92 21.874-3.688 6.304-7.839 12.34-12.456 17.996-3.796 4.513-7.961 8.708-12.379 12.612-5.526 4.705-11.562 8.79-17.898 12.326-6.757 3.672-13.85 6.666-20.81 9.925C11.266 218.813 5.592 221.32 0 224c3.596-5.249 7.025-10.616 10.553-15.91a151612.84 151612.84 0 0 0 63.37-96.088C49.875 75.562 25.841 39.116 1.813 2.662 1.216 1.773.657.857.01 0Zm10.933 9.38c2.205 3.211 4.298 6.5 6.455 9.742C35.571 46.715 53.756 74.3 71.951 101.881c1.46 2.135 2.782 4.373 4.332 6.443 4.87-7.377 9.777-14.73 14.627-22.119-3.18-5.327-6.323-10.678-9.482-16.018-2.942-4.96-5.802-9.971-8.913-14.829-3.976-5.674-8.154-11.243-13.063-16.15-1.908-2.085-4.076-3.903-6.116-5.851-.999-.837-2.015-1.656-3.017-2.49-4.56-3.739-9.584-6.858-14.716-9.74-7.961-4.442-16.477-7.761-24.66-11.747Zm156.522 13.468c-15.336 8.768-27.707 22.084-36.847 37.088-5.187 8.743-10.296 17.531-15.485 26.274 4.857 7.387 9.757 14.744 14.629 22.119 1.446-1.928 2.674-4.013 4.038-6.004 14.264-21.627 28.526-43.253 42.777-64.888 6.186-9.342 12.292-18.74 18.52-28.052-9.215 4.47-18.847 8.144-27.632 13.463Zm-82.619 79.697a104226.133 104226.133 0 0 1-62.893 95.465c-3.683 5.532-7.277 11.126-11.01 16.623 4.433-2.166 8.978-4.109 13.448-6.196 7.137-3.144 14-6.903 20.492-11.221a149.288 149.288 0 0 0 7.891-6.111c6.908-5.926 12.95-12.819 18.173-20.263 1.78-2.35 3.239-4.917 4.807-7.407 9.11-15.401 18.2-30.812 27.267-46.238 7.926 13.48 15.865 26.954 23.826 40.412 2.93 4.937 5.767 9.949 9.175 14.582 5.644 7.781 12.202 14.943 19.719 20.955 7.921 6.428 16.976 11.277 26.253 15.443 4.355 2.04 8.788 3.923 13.103 6.044-3.539-5.195-6.932-10.489-10.416-15.721a182397.986 182397.986 0 0 1-33.927-51.472c-15.89-24.165-31.85-48.281-47.733-72.45a6931.314 6931.314 0 0 0-18.175 27.555Zm10.683 35.142c2.51 3.749 4.982 7.522 7.492 11.273 2.51-3.751 4.985-7.524 7.489-11.278-2.487-4.23-4.999-8.45-7.489-12.681-2.492 4.231-5.004 8.451-7.492 12.686Z"/></g><defs><clipPath id="a"><path fill="#fff" d="M0 0h205.99v224H0z"/></clipPath></defs>
<style>
    path{ fill : #000; }
    @media(preders-color-scheme: dark){
        path{ fill : #FFF; }
    }
</style>

</svg>