<svg width="800" height="579" viewBox="0 0 800 579" fill="none" xmlns="http://www.w3.org/2000/svg">
<g clip-path="url(#clip0_1_21)">
<path d="M0.0196934 0.0651232C13.9387 0.0910406 27.8641 -0.142216 41.7766 0.181752C42.1915 3.62229 42.5481 7.06284 43.0472 10.4904C52.6421 79.1587 62.2369 147.833 71.8447 216.502C72.0586 217.817 72.0197 219.256 72.7199 220.441C79.5788 174.412 86.4638 128.376 93.3228 82.3466C97.3163 54.9 101.491 27.4793 105.712 0.0716025C120.097 0.0651232 134.483 -0.116299 148.862 0.162314C145.602 16.7041 142.665 33.3172 139.527 49.8849C133.887 80.1501 128.11 110.383 122.905 140.726C118.029 168.218 113.128 195.716 108.279 223.214C103.41 251.931 98.6583 280.667 93.7312 309.377C80.9986 314.288 68.2596 319.167 55.7215 324.565C53.2515 325.362 51.0019 326.968 48.3503 327.111C32.292 220.927 16.5448 114.698 0.687441 8.4883C0.175285 5.70865 -0.0645853 2.89013 0.0196934 0.0651232Z" fill="#3C3C3C"/>
<path d="M155.248 0.155505C191.151 -0.129587 227.066 0.10367 262.969 0.0388768C262.956 11.4166 262.801 22.7879 262.794 34.1592C259.734 34.9367 256.558 34.5868 253.439 34.7683C241.543 34.8331 229.673 35.63 217.77 35.5847C212.668 35.9021 207.553 36.103 202.444 36.0771C202.36 36.4659 202.198 37.2434 202.12 37.6321C201.861 52.3273 202.12 67.042 201.407 81.7242C201.426 92.7197 201.16 103.715 201.18 114.717C217.031 113.577 232.843 111.814 248.7 110.823C248.532 120.983 248.538 131.149 248.395 141.308C248.383 142.896 248.13 144.464 247.806 146.019C234.509 147.056 221.29 148.98 208.006 150.269C205.556 150.716 203.066 150.891 200.577 150.846C199.844 167.083 199.981 183.359 199.689 199.616C199.28 203.931 199.494 208.273 199.442 212.601C199.267 222.294 199.047 231.987 199.125 241.68C200.797 241.59 202.496 241.505 204.123 241.013C222.833 237.52 241.549 233.892 260.441 231.521C260.486 239.885 260.279 248.296 260.344 256.68C260.324 259.732 260.467 262.79 260.13 265.829C249.588 267.228 239.138 269.295 228.7 271.336C202.956 276.345 177.53 282.863 152.285 289.919C151.974 289.9 151.345 289.854 151.034 289.835C150.528 286.349 154.853 31.2305 155.248 0.155505Z" fill="#3C3C3C"/>
<path d="M270.788 0.142536C286.567 -0.110159 302.36 0.0971806 318.146 0.0388663C318.198 19.7037 315.656 218.691 316.259 224.005C316.46 224.497 316.895 225.352 317.582 225.002C320.37 224.354 323.261 224.801 326.081 224.361C329.686 223.7 333.387 224.173 336.992 223.434C343.429 223.441 349.796 222.469 356.24 222.573C356.22 233.588 356.259 244.596 356.117 255.604C350.152 255.533 344.272 256.537 338.308 256.46C334.872 257.185 331.339 256.738 327.896 257.38C311.209 258.676 294.567 260.548 277.971 262.868C274.483 263.172 271.041 264.339 267.533 263.982C267.559 261.974 270.807 15.4597 270.788 0.142536Z" fill="#3C3C3C"/>
<path d="M414.639 0.0388874C431.462 0.01297 448.285 0.0583255 465.109 0.01297C477.076 57.0897 513.277 232.991 519.034 262.298C504.078 260.976 489.186 258.747 474.211 257.632C464.233 201.651 454.911 145.559 445.167 89.5318C443.877 80.9467 441.932 72.4328 440.979 63.8088C440.72 63.8217 440.207 63.8476 439.955 63.8606C438.917 72.219 437.232 80.4866 435.948 88.8061C431.002 118.592 426.159 148.397 421.154 178.182C417.115 203.575 412.558 228.896 408.532 254.289C398.684 254.594 388.823 254.321 378.969 254.483C373.53 255.125 368.032 255.002 362.561 255.105C368.921 223.888 409.511 23.9931 414.639 0.0388874Z" fill="#3C3C3C"/>
<path d="M522.716 0.103662C542.295 -0.0518431 561.874 0.0583061 581.452 0.0453474C590.84 0.0194299 600.272 1.1274 609.264 3.88761C620.285 6.9977 630.742 13.0429 637.874 22.1335C644.253 29.967 648.065 39.5306 650.606 49.2172C654.386 63.3876 655.935 229.933 652.992 241.123C650.742 249.747 647.404 258.52 640.843 264.825C635.54 270.332 628.402 273.85 620.94 275.341C613.698 276.617 606.282 276.708 598.989 275.826C587.177 274.686 575.585 271.945 563.935 269.749C551.384 267.241 538.723 265.388 526.094 263.321C525.673 255.702 522.898 13.0429 522.716 0.103662ZM570.937 59.7008C570.768 64.2364 571.481 68.746 571.248 73.2816C571.566 86.668 571.228 100.08 571.909 113.454C571.961 125.33 572.123 137.207 572.22 149.09C573.011 166.338 572.369 183.651 573.206 200.906C573.245 212.633 573.42 224.367 573.51 236.095C575.404 237.067 577.582 236.911 579.617 237.371C585.342 237.844 591.3 238.952 596.875 236.898C600.908 235.518 603.987 232.117 605.614 228.255C608.882 221.102 608.382 213.061 609.109 205.415C609.251 195.081 609.284 184.74 608.908 174.418C608.72 167.064 609.096 159.69 608.545 152.356C608.635 140.038 608.013 127.734 608.201 115.423C607.754 109.806 607.935 104.175 607.851 98.5511C607.365 84.9444 608.019 71.1758 605.18 57.77C603.818 50.5973 600.253 43.2303 593.485 39.7703C586.444 36.3622 578.444 35.779 570.755 35.5199C570.736 43.5802 570.788 51.647 570.937 59.7008Z" fill="#3C3C3C"/>
<path d="M698.852 0.129587C715.728 -0.123108 732.609 0.129587 749.485 0C751.974 14.2028 753.906 28.4962 756.214 42.7249C760.908 72.5365 765.731 102.329 770.042 132.198C774.755 163.714 779.203 195.262 783.734 226.804C789.031 263.036 793.569 299.372 798.47 335.657C799.041 340.542 800.026 345.402 800 350.339C796.7 349.244 793.724 347.313 790.554 345.894C780.026 340.478 769.167 335.754 758.489 330.661C754.522 299.055 750.418 267.462 746.405 235.862C742.554 206.096 738.95 176.303 734.729 146.589C732.227 128.188 729.712 109.786 727.177 91.3849C726.47 87.1345 726.321 82.7609 725.147 78.6076C717.31 139.663 709.789 200.763 702.029 261.831C700.097 276.416 698.483 291.047 696.389 305.606C684.674 301.938 673.109 297.727 661.368 294.111C658.366 293.146 655.3 292.394 652.395 291.163C657.498 259.149 662.613 227.134 667.728 195.12C678.185 130.138 688.369 65.1111 698.852 0.129587Z" fill="#3C3C3C"/>
<path d="M490.185 281.321C494.139 278.496 499.741 279.384 503.332 282.403C507.164 285.163 510.697 289.99 516.071 288.688C518.023 286.388 518.185 283.317 518.347 280.459C521.75 280.427 525.16 280.459 528.577 280.433C528.655 285.008 528.817 289.647 527.961 294.163C527.598 298.705 526.12 303.578 522.47 306.552C519.468 308.923 515.138 308.411 512 306.597C508.622 304.465 505.964 301.349 502.548 299.295C500.428 298.31 497.16 297.526 495.624 299.839C494.444 301.932 494.256 304.413 494.159 306.772C490.515 306.759 486.872 306.759 483.235 306.772C482.891 302.353 483.611 297.999 484.156 293.638C484.882 289.103 486.314 284.185 490.185 281.321Z" fill="#3C3C3C"/>
<path d="M555.54 322.795C563.812 315.266 576.104 313.906 586.652 316.335C594.483 317.573 600.953 323.307 604.622 330.143C608.823 338.009 610.256 346.97 611.339 355.711C611.695 361.555 612.194 367.393 612.071 373.244C612.078 392.922 612.071 412.606 612.078 432.284C612.207 435.938 611.643 439.566 611.546 443.221C611.501 448.262 610.288 453.186 609.517 458.149C608.084 464.719 605.446 471.698 599.682 475.657C596.408 478.3 591.909 478.812 587.857 478.307C579.754 477.037 571.896 473.94 565.147 469.268C557.102 463.644 551.533 455.052 548.499 445.819C546.172 438.497 544.836 430.845 544.687 423.167C543.903 416.28 544.357 409.334 544.227 402.427C544.032 390.77 544.097 379.114 544.019 367.464C543.663 358.756 543.838 349.931 545.867 341.411C547.306 334.497 550.353 327.713 555.54 322.795ZM574.081 337.452C569.776 338.799 567.611 343.316 567.047 347.488C566.788 350.462 566.185 353.41 566.263 356.404C566.25 368.507 566.379 380.617 566.47 392.721C566.989 395.287 566.677 397.911 566.749 400.509C566.703 411.31 566.917 422.111 566.937 432.919C567.462 437.707 567.682 442.696 569.932 447.076C572.486 452.24 578.509 455.266 584.181 454.501C585.485 453.581 586.846 452.59 587.494 451.08C589.627 445.294 589.802 439.029 589.705 432.932C589.75 415.01 589.692 397.088 589.543 379.166C589.057 369.285 590.088 359.339 588.564 349.516C588.123 346.173 587.384 342.583 584.817 340.173C582.198 337.147 577.77 336.927 574.081 337.452Z" fill="#3C3C3C"/>
<path d="M260.22 316.672C276.882 316.711 293.543 316.698 310.204 316.679C310.256 322.88 310.288 329.08 310.12 335.281C303.987 335.573 297.802 334.944 291.708 335.832C288.577 335.987 285.439 335.949 282.314 336.013C282.256 348.959 282.224 361.911 282.101 374.864C286.606 374.734 291.066 373.963 295.566 373.568C298.269 373.574 300.992 373.568 303.656 373.03C303.812 379.211 303.734 385.412 303.566 391.6C296.246 391.878 289.005 393.058 281.712 393.731C281.433 408.809 281.854 423.912 281.089 438.964C288.084 437.603 295.131 436.508 302.146 435.277C304.603 434.927 307.028 434.273 309.536 434.389C309.374 440.208 309.446 446.039 309.439 451.864C298.898 454.45 288.019 455.707 277.491 458.447C272.901 459.322 268.408 460.624 263.844 461.622C262.25 461.992 260.558 462.128 259.131 463.009C258.95 462.84 258.58 462.497 258.392 462.328C258.502 459.419 259.695 321.713 260.22 316.672Z" fill="#3C3C3C"/>
<path d="M421.238 316.672C429.128 316.42 437.031 316.659 444.927 316.549C445.731 318.759 445.925 321.124 446.379 323.424C451.605 351.065 456.739 378.725 462.003 406.366C464.532 420.556 467.481 434.675 469.835 448.897C464.661 448.631 459.546 447.899 454.392 447.4C452.37 447.413 450.386 447.024 448.428 446.584C445.789 427.521 442.431 408.543 439.598 389.5C437.647 377.799 435.922 366.052 433.932 354.356L432.823 354.823C429.699 377.416 425.997 399.939 422.716 422.513C421.614 428.733 420.94 435.024 419.806 441.245C419.605 442.411 419.579 443.61 419.553 444.802C412.253 444.808 404.953 444.756 397.653 444.756C405.29 402.032 413.491 359.384 421.238 316.672Z" fill="#3C3C3C"/>
<path d="M474.898 316.724C479.942 316.621 484.985 316.783 490.029 316.634C491.702 318.117 491.922 320.456 492.81 322.394C499.903 341.08 506.937 359.773 513.64 378.602C515.455 383.598 517.465 388.541 518.84 393.673C519.248 378.673 518.334 327.357 518.36 316.718C524.571 316.666 530.781 316.705 536.992 316.698C537.498 321.953 539.034 460.035 538.541 461.92C534.814 461.402 531.267 460.028 527.54 459.523C526.023 458.92 523.695 459.251 523.086 457.385C521.426 452.24 519.559 447.16 518.042 441.977C512.934 427.262 508.143 412.418 502.781 397.788C500.434 390.498 497.465 383.403 495.371 376.043L494.853 376.017C494.859 387.848 495.274 438.964 495.656 452.694C490.139 452.305 484.752 450.97 479.267 450.368C478.12 450.07 476.026 449.992 476.143 448.398C475.961 436.32 475.021 326.929 474.898 316.724Z" fill="#3C3C3C"/>
<path d="M187.754 317.327C197.977 317.087 208.214 317.243 218.444 317.191C220.603 317.353 222.917 316.808 224.966 317.69C226.042 317.826 227.17 317.826 228.175 318.305C236.771 319.543 244.603 325.167 248.428 332.974C250.898 338.054 251.994 343.665 252.778 349.225C253.498 352.879 252.337 423.154 252.428 427.081C251.216 437.882 248.901 449.111 242.256 457.987C239.767 461.519 236.551 464.402 233.206 467.104C223.079 474.393 210.755 477.276 199.371 481.935C195.494 483.348 191.78 485.246 187.799 486.315C187.786 429.983 187.87 373.652 187.754 317.327ZM210.321 338.696C210.003 357.13 210.029 439.599 209.647 456.568C214.003 455.35 218.47 454.145 222.34 451.722C224.603 449.895 226.613 447.646 227.721 444.925C230.01 439.949 229.517 434.344 230.308 429.057C230.535 412.852 231.073 361.834 230.515 356.469C230.58 350.663 230.049 343.944 225.219 339.966C224.272 339.596 223.3 339.279 222.321 339.02C218.425 338.08 214.308 338.786 210.321 338.696Z" fill="#3C3C3C"/>
<path d="M316.784 317.443L317.491 316.737C324.752 316.627 332.019 316.627 339.287 316.608C339.326 333.564 338.561 417.277 338.58 430.534C344.804 430.359 350.956 429.187 357.193 429.154C360.493 428.552 363.844 428.506 367.19 428.577C367.177 434.189 367.164 439.8 367.19 445.417C366.444 445.592 365.705 445.78 364.966 445.988C362.36 446.188 359.656 445.754 357.135 446.61C352.778 446.454 348.538 447.484 344.194 447.419C335.734 448.463 327.287 449.545 318.846 450.685C317.692 450.763 316.538 450.756 315.391 450.73C315.533 443.7 316.538 323.521 316.784 317.443Z" fill="#3C3C3C"/>
<path d="M426.911 482.667C432.019 481.417 436.921 479.324 442.094 478.41C437.977 484.196 433.699 490.345 433.089 497.647C432.337 500.207 432.421 502.967 431.527 505.481C431.371 506.77 431.462 508.131 430.904 509.349C430.489 511.721 430.353 514.183 429.601 516.483C429.096 520.163 428.558 523.895 427.637 527.498C427.481 528.787 427.559 530.154 427.008 531.373C426.606 533.75 426.451 536.213 425.711 538.513C425.251 542.42 424.473 546.282 423.676 550.137C423.455 552.107 423.229 554.342 424.499 556.039C425.822 556.662 427.138 557.296 428.473 557.906C426.418 559.337 423.857 559.584 421.549 560.413C416.22 561.897 410.976 563.711 405.595 564.987C400.006 546.878 394.483 528.742 388.752 510.684C388.421 509.459 388.071 508.254 387.741 507.049C385.705 507.01 384.486 508.773 384.207 510.6C383.955 514.086 384.862 517.52 384.603 521.012C384.797 535.908 384.642 550.811 384.784 565.707C385.342 568.506 388.311 568.959 390.71 568.642L390.289 569.562C382.185 572.186 373.971 574.519 365.835 577.065C363.384 577.694 361.031 578.73 358.496 578.97C358.729 577.596 359.89 576.748 360.797 575.815C364.726 571.946 367.235 566.672 367.857 561.21C367.818 545.2 367.974 529.189 367.883 513.185C368.052 511.047 366.477 509.284 364.784 508.222C362.308 506.699 359.76 505.293 357.154 504.01C358.217 502.967 359.773 502.883 361.122 502.416C367.773 500.453 374.405 498.451 381.044 496.449C382.152 496.164 383.267 495.879 384.266 495.289C383.365 493.727 382.956 491.952 382.703 490.19C388.901 491.33 395.216 491.751 401.407 492.95C401.543 493.87 401.692 494.797 402.01 495.697C402.366 497 402.703 498.308 403.086 499.611C403.41 500.44 403.54 501.315 403.715 502.19C404.065 503.012 404.194 503.9 404.357 504.788C405.135 507.133 405.595 509.576 406.282 511.96C406.593 513.036 406.853 514.137 407.183 515.22C407.345 516.081 407.501 516.969 407.831 517.805C408 518.66 408.156 519.541 408.46 520.371C408.817 521.66 409.167 522.956 409.556 524.252C409.828 525.334 410.036 526.461 410.431 527.53C410.6 528.399 410.677 529.325 411.157 530.109C411.196 530.569 411.274 531.476 411.313 531.93H411.89C412.849 522.224 414.276 512.531 415.397 502.824C415.942 500.641 415.812 498.386 415.831 496.164C413.485 492.49 408.596 492.224 405.77 489.224C412.713 486.723 419.903 484.974 426.911 482.667Z" fill="#3C3C3C"/>
</g>
<defs>
<clipPath id="clip0_1_21">
<rect width="800" height="578.97" fill="white"/>
</clipPath>
</defs>
</svg>
